# xmcd CD database file
#
# Track frame offsets:
#	182
#	26072
#	51237
#	72385
#	90687
#	114302
#	137792
#	172940
#	193177
#	213502
#
# Disc length: 3325 seconds
#
# Revision: 2
# Processed by: cddbd v1.5.2PL0 Copyright (c) Steve Scherf et al.
# Submitted via: CDex 1.70beta2
#
DISCID=910cfb0a
DTITLE=Kajdan - Blue Noise
DYEAR=1993
DGENRE=Blues
TTITLE0=Blue Noise
TTITLE1=Comme Convenu
TTITLE2=Stevabe
TTITLE3=Sexy Sadie
TTITLE4=Westwards
TTITLE5=Sur Le Pont
TTITLE6=Drumsticks
TTITLE7=Nasty Bit
TTITLE8=Twines
TTITLE9=Shuffle Faire Jouer A Mes Potes
EXTD=YEAR: 1993
EXTT0=
EXTT1=
EXTT2=
EXTT3=
EXTT4=
EXTT5=
EXTT6=
EXTT7=
EXTT8=
EXTT9=
PLAYORDER=
